<svg xmlns="http://www.w3.org/2000/svg" viewBox="2942.2 0 1327.01 430" style="fill-rule:nonzero;clip-rule:evenodd;stroke-linecap:round;stroke-linejoin:round;">
<g opacity="1" xmlns="http://www.w3.org/2000/svg">
<path d="M2942.2 64.3275C2942.2 28.8004 2971-2.84217e-14 3006.52-2.84217e-14L4204.88-2.84217e-14C4240.41-2.84217e-14 4269.21 28.8004 4269.21 64.3275L4269.21 365.672C4269.21 401.2 4240.41 430 4204.88 430L3006.52 430C2971 430 2942.2 401.2 2942.2 365.672L2942.2 64.3275Z" fill="#f4a6a6" fill-rule="nonzero" opacity="0.5" stroke="none" />
<g opacity="1">
<path d="M3157.05 239.111L3135.17 176.72L3113.3 239.111L3157.05 239.111ZM3169.97 276.149L3100.37 276.149L3089.19 308.711L3037.24 308.711L3108.58 121.289L3161.77 121.289L3233.11 308.711L3181.16 308.711L3169.97 276.149Z" fill="#6b5746" fill-rule="nonzero" opacity="1" stroke="none" />
<path d="M3244.49 308.711L3244.49 121.289L3293.21 121.289L3383.19 235.88L3383.19 121.289L3431.66 121.289L3431.66 308.711L3383.19 308.711L3293.21 194.12L3293.21 308.711L3244.49 308.711Z" fill="#6b5746" fill-rule="nonzero" opacity="1" stroke="none" />
<path d="M3563.84 169.263C3558.54 164.954 3553.24 161.764 3547.94 159.693C3542.63 157.621 3537.5 156.586 3532.52 156.586C3526.23 156.586 3521.09 158.077 3517.11 161.06C3513.14 164.043 3511.15 167.937 3511.15 172.743C3511.15 176.057 3512.14 178.791 3514.13 180.946C3516.12 183.1 3518.73 184.964 3521.96 186.539C3525.19 188.113 3528.84 189.48 3532.9 190.64C3536.96 191.8 3540.98 193.043 3544.95 194.369C3560.86 199.671 3572.5 206.756 3579.88 215.621C3587.25 224.487 3590.94 236.046 3590.94 250.297C3590.94 259.909 3589.32 268.609 3586.09 276.397C3582.86 284.186 3578.14 290.856 3571.92 296.407C3565.71 301.959 3558.09 306.267 3549.05 309.333C3540.02 312.399 3529.79 313.931 3518.36 313.931C3494.66 313.931 3472.7 306.889 3452.48 292.803L3473.36 253.529C3480.66 259.991 3487.86 264.797 3494.99 267.946C3502.12 271.094 3509.16 272.669 3516.12 272.669C3524.07 272.669 3530 270.846 3533.89 267.2C3537.79 263.554 3539.73 259.411 3539.73 254.771C3539.73 251.954 3539.24 249.51 3538.24 247.439C3537.25 245.367 3535.59 243.461 3533.27 241.721C3530.95 239.981 3527.93 238.366 3524.2 236.874C3520.47 235.383 3515.95 233.726 3510.65 231.903C3504.35 229.914 3498.18 227.719 3492.13 225.316C3486.08 222.913 3480.7 219.723 3475.97 215.746C3471.25 211.769 3467.44 206.756 3464.54 200.707C3461.64 194.659 3460.19 186.994 3460.19 177.714C3460.19 168.434 3461.72 160.024 3464.79 152.484C3467.85 144.944 3472.16 138.481 3477.71 133.096C3483.27 127.71 3490.06 123.526 3498.1 120.543C3506.13 117.56 3515.12 116.069 3525.07 116.069C3534.35 116.069 3544.04 117.353 3554.15 119.921C3564.26 122.49 3573.95 126.26 3583.23 131.231L3563.84 169.263Z" fill="#6b5746" fill-rule="nonzero" opacity="1" stroke="none" />
<path d="M3643.08 121.289L3675.4 242.343L3715.17 121.289L3753.94 121.289L3793.72 242.343L3826.03 121.289L3876.99 121.289L3821.06 308.711L3771.34 308.711L3734.56 200.086L3697.77 308.711L3648.05 308.711L3592.12 121.289L3643.08 121.289Z" fill="#6b5746" fill-rule="nonzero" opacity="1" stroke="none" />
<path d="M3993.26 162.551L3935.34 162.551L3935.34 193.871L3990.03 193.871L3990.03 235.134L3935.34 235.134L3935.34 267.449L3993.26 267.449L3993.26 308.711L3886.62 308.711L3886.62 121.289L3993.26 121.289L3993.26 162.551Z" fill="#6b5746" fill-rule="nonzero" opacity="1" stroke="none" />
<path d="M4067.03 205.057L4076.23 205.057C4085.84 205.057 4093.21 203.069 4098.35 199.091C4103.49 195.114 4106.06 189.397 4106.06 181.94C4106.06 174.483 4103.49 168.766 4098.35 164.789C4093.21 160.811 4085.84 158.823 4076.23 158.823L4067.03 158.823L4067.03 205.057ZM4174.16 308.711L4113.51 308.711L4067.03 236.626L4067.03 308.711L4018.31 308.711L4018.31 121.289L4094.12 121.289C4104.56 121.289 4113.68 122.821 4121.47 125.887C4129.26 128.953 4135.68 133.137 4140.73 138.44C4145.79 143.743 4149.6 149.874 4152.17 156.834C4154.73 163.794 4156.02 171.251 4156.02 179.206C4156.02 193.457 4152.58 205.016 4145.7 213.881C4138.83 222.747 4128.68 228.754 4115.25 231.903L4174.16 308.711Z" fill="#6b5746" fill-rule="nonzero" opacity="1" stroke="none" />
</g>
</g>
</svg>
